<svg width="24" height="24" viewBox="0 0 24 24" fill="none" xmlns="http://www.w3.org/2000/svg">
<g id="_Pinterest">
<g clip-path="url(#clip0_3317_6599)">
<path id="Vector" d="M11.9951 0C5.36076 0 0 5.37062 0 11.9951C0 17.0794 3.15919 21.4233 7.62156 23.1707C7.51296 22.2229 7.42411 20.7618 7.66104 19.7252C7.87824 18.7873 9.06293 13.7622 9.06293 13.7622C9.06293 13.7622 8.70754 13.0416 8.70754 11.9852C8.70754 10.3167 9.67502 9.07281 10.8795 9.07281C11.9062 9.07281 12.3998 9.84286 12.3998 10.761C12.3998 11.7877 11.7482 13.3278 11.4027 14.7594C11.1164 15.9539 12.0049 16.9313 13.1798 16.9313C15.3122 16.9313 16.9511 14.6804 16.9511 11.4422C16.9511 8.56932 14.8877 6.5652 11.9358 6.5652C8.51995 6.5652 6.51583 9.12216 6.51583 11.768C6.51583 12.7947 6.91073 13.9004 7.40436 14.5027C7.5031 14.6211 7.51296 14.7297 7.48334 14.8482C7.3945 15.2234 7.18716 16.0428 7.14768 16.2106C7.09831 16.4278 6.96996 16.4772 6.7429 16.3686C5.26202 15.6577 4.33402 13.4661 4.33402 11.7088C4.33402 7.92761 7.07856 4.45248 12.2616 4.45248C16.4179 4.45248 19.6561 7.41422 19.6561 11.383C19.6561 15.5195 17.0498 18.8466 13.4364 18.8466C12.2221 18.8466 11.0769 18.2147 10.6919 17.4644C10.6919 17.4644 10.0897 19.7548 9.94159 20.3176C9.67502 21.3641 8.94446 22.6672 8.45083 23.4669C9.57631 23.8124 10.761 24 12.0049 24C18.6294 24 24 18.6294 24 12.0049C23.9901 5.37062 18.6195 0 11.9951 0Z" fill="#FA58A6"/>
</g>
</g>
<defs>
<clipPath id="clip0_3317_6599">
<rect width="24" height="24" rx="6" fill="white"/>
</clipPath>
</defs>
</svg>
