<svg width="24" height="24" viewBox="0 0 24 24" fill="none" xmlns="http://www.w3.org/2000/svg">
<g id="_Reddit">
<path id="Vector" d="M22.7992 12.1815C22.7992 10.7961 21.7363 9.67165 20.4266 9.67165C19.7813 9.67165 19.2119 9.93267 18.7943 10.3744C17.1809 9.1496 14.9412 8.34645 12.4737 8.24606L13.5556 2.88503L17.0671 3.6681C17.105 4.61181 17.8453 5.3748 18.7563 5.3748C19.6864 5.3748 20.4456 4.57165 20.4456 3.58779C20.4456 2.60393 19.6864 1.80078 18.7563 1.80078C18.092 1.80078 17.5226 2.20236 17.2569 2.80472L13.3279 1.92125C13.214 1.90118 13.1001 1.92125 13.0052 1.98149C12.9103 2.04173 12.8533 2.14212 12.8154 2.26259L11.6196 8.24606C9.09518 8.32637 6.83648 9.10944 5.20414 10.3744C4.78656 9.95275 4.19816 9.67165 3.5718 9.67165C2.26214 9.67165 1.19922 10.7961 1.19922 12.1815C1.19922 13.2055 1.76864 14.0689 2.60379 14.4705C2.56583 14.7114 2.54685 14.9724 2.54685 15.2335C2.54685 19.0886 6.77954 22.2008 12.0182 22.2008C17.2569 22.2008 21.4896 19.0886 21.4896 15.2335C21.4896 14.9724 21.4706 14.7315 21.4326 14.4905C22.2108 14.089 22.7992 13.2055 22.7992 12.1815ZM6.57075 13.9685C6.57075 12.9846 7.32998 12.1815 8.26003 12.1815C9.19008 12.1815 9.94931 12.9846 9.94931 13.9685C9.94931 14.9524 9.19008 15.7555 8.26003 15.7555C7.32998 15.7555 6.57075 14.9524 6.57075 13.9685ZM16.0041 18.687C14.8463 19.9118 12.6446 19.9921 11.9992 19.9921C11.3539 19.9921 9.13314 19.8917 7.9943 18.687C7.82347 18.5063 7.82347 18.2051 7.9943 18.0244C8.16512 17.8437 8.44983 17.8437 8.62066 18.0244C9.34193 18.7874 10.8983 19.0685 12.0182 19.0685C13.1381 19.0685 14.6755 18.7874 15.4157 18.0244C15.5866 17.8437 15.8713 17.8437 16.0421 18.0244C16.175 18.2252 16.175 18.5063 16.0041 18.687ZM15.7004 15.7555C14.7704 15.7555 14.0112 14.9524 14.0112 13.9685C14.0112 12.9846 14.7704 12.1815 15.7004 12.1815C16.6305 12.1815 17.3897 12.9846 17.3897 13.9685C17.3897 14.9524 16.6305 15.7555 15.7004 15.7555Z" fill="#FA58A6"/>
</g>
</svg>
