<svg width="24" height="24" viewBox="0 0 24 24" fill="none" xmlns="http://www.w3.org/2000/svg">
<g id="_Twitter">
<path id="Vector" d="M21.0586 7.18066C21.0678 7.39186 21.0679 7.59346 21.0679 7.80466C21.0771 14.2079 16.3726 21.5999 7.76939 21.5999C5.23194 21.5999 2.7408 20.8415 0.601562 19.4207C0.971993 19.4687 1.34242 19.4879 1.71285 19.4879C3.81505 19.4879 5.86168 18.7583 7.51935 17.4047C5.51903 17.3663 3.75948 16.0127 3.14827 14.0351C3.85209 14.1791 4.57443 14.1503 5.25973 13.9487C3.08345 13.5071 1.51838 11.5199 1.50912 9.20626C1.50912 9.18706 1.50912 9.16786 1.50912 9.14866C2.15737 9.52306 2.88897 9.73426 3.62983 9.75346C1.5832 8.33266 0.944211 5.50065 2.18515 3.28304C4.56517 6.31665 8.06574 8.15026 11.8256 8.35186C11.4459 6.67185 11.9645 4.90545 13.1777 3.71505C15.0576 1.88144 18.0211 1.97744 19.7991 3.92625C20.8456 3.71505 21.855 3.31184 22.7718 2.74544C22.4199 3.86865 21.6883 4.81905 20.7159 5.42385C21.642 5.30865 22.5496 5.04945 23.4016 4.66545C22.7718 5.64465 21.9754 6.48945 21.0586 7.18066Z" fill="#FA58A6"/>
</g>
</svg>
