<svg width="40" height="40" viewBox="0 0 40 40" fill="none" xmlns="http://www.w3.org/2000/svg">
<path id="bunny vector" fill-rule="evenodd" clip-rule="evenodd" d="M23.6108 0.15435C24.4769 0.363861 25.2348 0.755576 26.0674 1.4243C26.9211 2.10988 29.0568 4.29624 30.2429 5.69897L31.0563 6.66085L31.8428 6.78438C35.449 7.35059 38.2965 9.87425 39.4731 13.5466C39.9253 14.958 40.0034 15.4329 39.9999 16.744C39.9969 17.8157 39.9609 18.1019 39.7682 18.5859C39.1491 20.1404 37.7877 21.1208 35.6349 21.5626C35.1891 21.654 34.8084 21.7448 34.789 21.7642C34.7696 21.7837 34.8025 22.0636 34.8623 22.3864C35.142 23.8968 34.9277 26.3725 34.3082 28.7866C33.8761 30.4704 33.5799 32.0074 33.4993 32.9852C33.4647 33.4039 33.4147 33.8893 33.3881 34.064C33.3415 34.3692 33.3601 34.3881 33.8748 34.5562C35.5584 35.1059 36.8293 36.5994 37.1137 38.3625C37.2413 39.1531 37.1683 39.5197 36.8305 39.7849C36.584 39.9786 36.4223 39.9891 33.7076 39.9891C30.5891 39.9891 30.1073 39.9274 29.1463 39.4053C28.3965 38.9979 27.6029 38.1487 27.1916 37.3137C26.7903 36.4988 26.6415 35.645 26.6364 34.1271C26.6347 33.6107 26.6115 33.1882 26.585 33.1882C26.5583 33.1882 26.1123 33.411 25.5936 33.6834C25.0749 33.9558 24.2158 34.3525 23.6845 34.565C23.1533 34.7777 22.7031 34.9623 22.6842 34.9755C22.6653 34.9886 22.9448 35.2885 23.3055 35.6418C24.0142 36.3362 24.4126 37.0129 24.6513 37.9278C24.8967 38.868 24.8561 39.3426 24.5003 39.6978L24.1977 40L19.3401 39.9653C14.6946 39.932 14.447 39.9206 13.6691 39.7055C10.5899 38.8539 8.04466 36.5967 6.48286 33.3326L5.98432 32.2909L5.23097 32.3477C1.38646 32.638 -1.18553 28.7988 0.55492 25.3676C1.28732 23.9235 3.04414 22.8594 4.72745 22.8403L5.24206 22.8345L5.37068 22.3332C5.53256 21.7029 6.07949 20.5572 6.5767 19.8069C7.09527 19.0245 8.25005 17.8263 8.9914 17.3016C10.7702 16.0425 12.4814 15.5465 15.9969 15.2709C18.8568 15.0466 20.0986 14.8302 21.9051 14.2414C22.8732 13.9259 22.9732 13.8572 22.9715 13.5088C22.9703 13.2579 22.8875 13.2129 21.5734 12.7507C18.6752 11.7311 14.9727 10.0524 13.9184 9.27973C11.2011 7.28836 10.8232 3.55148 13.1181 1.36614C14.6571 -0.0993151 16.9563 -0.415204 18.9761 0.561394L19.5041 0.816684L20.0163 0.557638C21.0733 0.0228997 22.4356 -0.129971 23.6108 0.15435ZM21.5152 1.97671L21.1253 2.03791L22.3795 3.32604C23.0693 4.03446 24.137 5.20361 24.7522 5.92411C25.3673 6.64461 25.9857 7.36764 26.1263 7.53066L26.382 7.82726L27.2365 7.41474C27.7066 7.18777 28.2436 6.97359 28.4298 6.93867C28.6161 6.90385 28.7685 6.84285 28.7685 6.80326C28.7685 6.76357 27.8191 5.79306 26.6587 4.64654C24.4139 2.42862 23.9644 2.10054 22.9498 1.93945C22.4176 1.8549 22.2661 1.85886 21.5152 1.97671ZM15.1731 2.24123C14.0723 2.76501 13.5166 3.66335 13.5166 4.91848C13.5166 6.02765 14.0658 7.07459 14.9757 7.69947C16.1891 8.53294 20.9431 10.6066 23.2392 11.304C23.423 11.3598 23.4953 11.2866 23.7309 10.8058C23.8829 10.4958 24.2055 9.98073 24.4479 9.66119L24.8885 9.08027L24.6229 8.72499C23.8707 7.71875 21.4704 5.10139 19.8104 3.47738C18.7061 2.39694 18.186 2.07659 17.2918 1.92585C16.5742 1.80486 15.8697 1.90971 15.1731 2.24123ZM29.144 8.77493C27.5292 9.19487 26.0382 10.4374 25.3412 11.9443C24.362 14.0612 24.844 16.5195 26.5707 18.2162C27.4074 19.0383 28.231 19.4855 29.4995 19.807C30.2598 19.9996 30.5232 20.0148 32.124 19.9591C35.6436 19.8366 37.2743 19.3182 37.8655 18.1338C38.5408 16.7809 37.863 13.6952 36.46 11.7357C35.413 10.2733 33.8361 9.17152 32.2256 8.77727C31.4609 8.59009 29.8596 8.58887 29.144 8.77493ZM34.1067 11.7655C34.7623 12.0363 35.0839 13.0917 34.7231 13.7883C34.3005 14.6041 33.1898 14.7521 32.5685 14.0753C32.1414 13.61 32.0467 13.1181 32.2712 12.5312C32.5448 11.8161 33.3827 11.4666 34.1067 11.7655ZM22.1593 16.177C20.8646 16.5886 19.1185 16.9319 17.7363 17.0466C13.9517 17.3608 13.3121 17.4533 12.0702 17.8656C9.76294 18.6315 7.7443 20.8206 7.06355 23.2949C6.6735 24.7127 6.75261 27.1977 7.26396 29.5847C8.20206 33.9635 10.7891 37.0292 14.2439 37.856C15.0139 38.0402 15.444 38.0592 18.8802 38.0598C20.9634 38.0602 22.6677 38.0346 22.6677 38.0031C22.6677 37.8483 22.3994 37.4595 22.0237 37.0698C21.3152 36.3352 20.8804 36.2334 18.452 36.2334C16.3918 36.2334 16.3773 36.2319 16.0784 35.9807C15.7159 35.6762 15.6324 35.3304 15.8253 34.9328C16.0086 34.5551 16.2198 34.4563 17.2787 34.2531C18.5316 34.0126 19.3172 33.5963 20.2379 32.6847C21.4085 31.5258 21.958 30.2313 21.9545 28.6408C21.948 25.6701 19.6711 23.242 16.6448 22.9785C15.9922 22.9217 15.813 22.8661 15.6018 22.6553C15.2461 22.3002 15.2518 21.7388 15.6148 21.3764C15.8511 21.1405 15.9637 21.1088 16.5645 21.1088C17.4136 21.1088 18.6344 21.4132 19.5665 21.8572C23.178 23.5774 24.8333 27.8479 23.325 31.5536C23.1821 31.9046 22.9612 32.3589 22.8339 32.5631C22.7067 32.7673 22.5685 32.9921 22.5268 33.0624C22.327 33.3998 25.2783 31.9709 26.5058 31.136C26.9394 30.841 27.4038 30.5677 27.5378 30.5284C27.845 30.4386 28.4107 30.6668 28.557 30.9398C28.6263 31.069 28.6669 31.9834 28.6669 33.4169C28.6669 35.9673 28.7461 36.4295 29.3094 37.1667C29.5152 37.4362 29.869 37.7178 30.2395 37.9072L30.8376 38.2128L33.0059 38.2453C34.2028 38.2633 35.1744 38.2381 35.1744 38.1891C35.1744 38.1402 35.0377 37.8851 34.8706 37.6222C34.4162 36.9069 33.4115 36.337 32.6019 36.3355C32.1755 36.3346 31.762 36.0788 31.6153 35.7251C31.3474 35.0797 31.6745 31.9557 32.2729 29.4435C32.9888 26.4384 33.2358 23.7602 32.929 22.3319L32.8189 21.8194L31.3784 21.8187C29.5813 21.8178 28.6244 21.6091 27.1638 20.8994C26.3519 20.505 25.947 20.2291 25.352 19.6648C24.4033 18.7652 23.6783 17.6801 23.3646 16.6903C23.233 16.2753 23.0795 15.9354 23.0236 15.9351C22.9677 15.9348 22.5788 16.0436 22.1593 16.177ZM3.89032 24.9148C2.75232 25.2523 1.92709 26.3832 1.92709 27.6053C1.92709 29.1296 3.011 30.3015 4.53375 30.4236C5.51191 30.502 5.48446 30.555 5.21237 29.1125C5.07337 28.3755 4.9483 27.2211 4.90905 26.3111C4.83289 24.5468 4.88607 24.6197 3.89032 24.9148Z" fill="#79043C"/>
</svg>
