<svg width="24" height="25" viewBox="0 0 24 25" fill="none" xmlns="http://www.w3.org/2000/svg">
<g id="call">
<path id="Vector" d="M6.54 5.5C6.6 6.39 6.75 7.26 6.99 8.09L5.79 9.29C5.38 8.09 5.12 6.82 5.03 5.5H6.54ZM16.4 17.52C17.25 17.76 18.12 17.91 19 17.97V19.46C17.68 19.37 16.41 19.11 15.2 18.71L16.4 17.52ZM7.5 3.5H4C3.45 3.5 3 3.95 3 4.5C3 13.89 10.61 21.5 20 21.5C20.55 21.5 21 21.05 21 20.5V17.01C21 16.46 20.55 16.01 20 16.01C18.76 16.01 17.55 15.81 16.43 15.44C16.33 15.4 16.22 15.39 16.12 15.39C15.86 15.39 15.61 15.49 15.41 15.68L13.21 17.88C10.38 16.43 8.06 14.12 6.62 11.29L8.82 9.09C9.1 8.81 9.18 8.42 9.07 8.07C8.7 6.95 8.5 5.75 8.5 4.5C8.5 3.95 8.05 3.5 7.5 3.5Z" fill="#FA58A6"/>
</g>
</svg>
