<svg width="45" height="46" viewBox="0 0 45 46" fill="none" xmlns="http://www.w3.org/2000/svg">
<g id="Vectors" clip-path="url(#clip0_3317_6637)">
<g id="Group">
<g id="Group_2">
<path id="Vector" d="M12.3323 4.42827L12.1723 4.23623L12.3323 4.42827C8.6953 7.45972 6.60979 11.9107 6.60979 16.6409C6.60979 21.4475 8.75736 25.943 12.5033 28.9758L12.3459 29.1701L12.5033 28.9758C14.3556 30.4757 15.4142 32.7563 15.4142 35.2274V35.2278V35.2281L15.4142 38.163C15.4142 40.4524 17.2771 42.3152 19.5664 42.3152H21.0338H21.2838V42.5652V44.0327C21.2838 44.705 21.8289 45.2501 22.5013 45.2501C23.1736 45.2501 23.7187 44.705 23.7187 44.0327V42.5652V42.3152H23.9687L25.4361 42.3152C27.7255 42.3152 29.5884 40.4523 29.5884 38.163V35.2281C29.5884 32.7523 30.6385 30.4772 32.4782 28.9928L32.6352 29.1873L32.4782 28.9928C37.0022 25.3426 39.1436 19.6204 38.1523 13.8404C36.0732 1.71676 21.5729 -3.27386 12.3323 4.42827ZM26.9035 36.4455H27.1535V36.6955V38.1629C27.1535 39.1101 26.3833 39.8803 25.4361 39.8803L19.5664 39.8803C18.6192 39.8803 17.849 39.1101 17.849 38.1629L17.849 36.6955V36.4455H18.099L26.9035 36.4455ZM23.9687 21.293H23.7187V21.043V19.5756C23.7187 17.0101 25.8055 14.9233 28.3709 14.9233H29.8384H30.0884V15.1733V16.6408C30.0884 19.2063 28.0015 21.293 25.4361 21.293H23.9687ZM14.0352 27.0835L14.1925 26.8892L14.0352 27.0835C10.8641 24.5158 9.04455 20.7092 9.04446 16.6409C9.04446 12.6357 10.8113 8.86576 13.8912 6.29868L14.0513 6.49072L13.8912 6.29868C21.6963 -0.206766 33.9897 3.9721 35.7527 14.2519L35.5063 14.2942L35.7527 14.2519C36.5983 19.1835 34.8032 23.9884 30.9494 27.0978C28.9017 28.75 27.5938 31.1358 27.2464 33.793L27.218 34.0106H26.9985L23.9687 34.0106H23.7187V33.7606V23.9779V23.7279H23.9687H25.4361C29.3437 23.7279 32.5232 20.5484 32.5232 16.6408V13.7059C32.5232 13.0336 31.9782 12.4885 31.3058 12.4885H28.3709C26.0556 12.4885 23.9959 13.6047 22.7012 15.3286L22.5013 15.5947L22.3014 15.3286C21.0067 13.6047 18.9469 12.4885 16.6316 12.4885H13.6967C13.0244 12.4885 12.4793 13.0336 12.4793 13.7059V16.6408C12.4793 20.5484 15.6588 23.7279 19.5664 23.7279H21.0338H21.2838V23.9779V33.7607V34.0107H21.0338H18.0032H17.7839L17.7553 33.7933C17.4061 31.14 16.0924 28.7491 14.0352 27.0835ZM21.2838 21.043V21.293H21.0338H19.5664C17.0009 21.293 14.9142 19.2062 14.9142 16.6408V15.1733V14.9233H15.1642H16.6316C19.1971 14.9233 21.2838 17.0102 21.2838 19.5756V21.043Z" fill="#79043C" stroke="#FBEFF2" stroke-width="0.5"/>
</g>
</g>
</g>
<defs>
<clipPath id="clip0_3317_6637">
<rect width="45" height="45" fill="white" transform="matrix(-1 0 0 1 45 0.5)"/>
</clipPath>
</defs>
</svg>
