<svg width="24" height="25" viewBox="0 0 24 25" fill="none" xmlns="http://www.w3.org/2000/svg">
<g id="location_on">
<g id="Vector">
<path d="M12 2.5C8.13 2.5 5 5.63 5 9.5C5 14.75 12 22.5 12 22.5C12 22.5 19 14.75 19 9.5C19 5.63 15.87 2.5 12 2.5ZM7 9.5C7 6.74 9.24 4.5 12 4.5C14.76 4.5 17 6.74 17 9.5C17 12.38 14.12 16.69 12 19.38C9.92 16.71 7 12.35 7 9.5Z" fill="#FA58A6"/>
<path d="M12 12C13.3807 12 14.5 10.8807 14.5 9.5C14.5 8.11929 13.3807 7 12 7C10.6193 7 9.5 8.11929 9.5 9.5C9.5 10.8807 10.6193 12 12 12Z" fill="#FA58A6"/>
</g>
</g>
</svg>
