<svg width="41" height="40" viewBox="0 0 41 40" fill="none" xmlns="http://www.w3.org/2000/svg">
<g id="Vectors">
<g id="Wheat">
<path id="Combined-Shape" d="M6.10547 34.2859L25.6815 14.7098M15.1758 25.2156L15.513 24.9435C15.8402 24.6597 16.1365 24.3417 16.3968 23.9945C18.42 21.297 17.8734 17.47 15.1758 15.4468L14.8385 15.719C14.5114 16.0027 14.215 16.3208 13.9547 16.6679C11.9315 19.3655 12.4782 23.1924 15.1758 25.2156ZM15.1758 25.2156L15.4479 25.5529C15.7317 25.88 16.0498 26.1764 16.3969 26.4367C19.0945 28.4599 22.9213 27.9132 24.9445 25.2156L24.6723 24.8784C24.3886 24.5512 24.0705 24.2548 23.7234 23.9945C21.0258 21.9713 17.1989 22.5181 15.1758 25.2156ZM20.0601 20.3312L20.3974 20.0591C20.7245 19.7753 21.0209 19.4573 21.2812 19.1101C23.3044 16.4126 22.7577 12.5856 20.0601 10.5624L19.7229 10.8345C19.3957 11.1183 19.0994 11.4364 18.8391 11.7835C16.8159 14.4811 17.3625 18.308 20.0601 20.3312ZM20.0601 20.3312L20.3323 20.6685C20.6161 20.9956 20.9341 21.292 21.2813 21.5523C23.9788 23.5755 27.8057 23.0288 29.8289 20.3312L29.5567 19.994C29.2729 19.6668 28.9549 19.3704 28.6077 19.1101C25.9102 17.0869 22.0833 17.6337 20.0601 20.3312ZM24.9445 15.4468L25.2817 15.1747C25.6089 14.8909 25.9052 14.5729 26.1656 14.2257C28.1888 11.5282 27.6421 7.7012 24.9445 5.678L24.6073 5.95015C24.2801 6.23391 23.9838 6.55195 23.7234 6.89907C21.7002 9.59665 22.2469 13.4236 24.9445 15.4468ZM24.9445 15.4468L25.2166 15.7841C25.5004 16.1112 25.8185 16.4076 26.1656 16.6679C28.8632 18.6911 32.6901 18.1444 34.7132 15.4468L34.4411 15.1096C34.1573 14.7824 33.8392 14.486 33.4921 14.2257C30.7945 12.2025 26.9676 12.7492 24.9445 15.4468ZM10.1758 30.2156L10.513 29.9435C10.8402 29.6597 11.1365 29.3417 11.3968 28.9945C13.42 26.297 12.8734 22.47 10.1758 20.4468L9.83854 20.719C9.51138 21.0027 9.21504 21.3208 8.9547 21.6679C6.9315 24.3655 7.47819 28.1924 10.1758 30.2156ZM10.1758 30.2156L10.4479 30.5529C10.7317 30.88 11.0498 31.1764 11.3969 31.4367C14.0944 33.4599 17.9213 32.9132 19.9445 30.2156L19.6723 29.8784C19.3886 29.5512 19.0705 29.2548 18.7234 28.9945C16.0258 26.9713 12.1989 27.5181 10.1758 30.2156ZM34.8925 5.49984C35.3694 8.83797 33.05 11.9306 29.7119 12.4074C29.2824 12.4688 28.8479 12.4841 28.4159 12.4535L27.985 12.4074C27.5081 9.0693 29.8276 5.9767 33.1657 5.49984C33.7384 5.41802 34.3198 5.41802 34.8925 5.49984Z" stroke="#79043C" stroke-width="1.66667" stroke-linecap="round"/>
</g>
</g>
</svg>
